<svg version="1.1" id="Layer_1" xmlns="http://www.w3.org/2000/svg" xmlns:xlink="http://www.w3.org/1999/xlink" x="0px" y="0px"
	 width="100%" viewBox="0 0 1024 448" enable-background="new 0 0 1024 448" xml:space="preserve">
<path fill="#000000" opacity="1.000000" stroke="none" 
	d="
M527.743896,333.782471 
	C498.388458,357.731598 467.667419,379.162354 436.158722,399.495392 
	C432.361816,401.945587 428.325592,403.876892 424.043793,405.343658 
	C419.847656,406.781158 415.928833,406.435028 413.184540,402.827026 
	C410.462555,399.248383 411.150635,395.267334 413.457855,391.621002 
	C417.695374,384.923859 423.317108,379.457550 429.420380,374.528107 
	C447.878479,359.619965 468.408081,347.755890 488.222870,334.847626 
	C515.713379,316.939056 543.962830,300.207947 571.048828,281.673523 
	C581.070801,274.815643 590.429810,267.073273 599.518799,258.943970 
	C565.655640,273.513245 530.919495,286.304626 501.085999,308.800629 
	C491.640442,315.923035 482.188171,323.024139 471.786621,328.760559 
	C469.242645,330.163574 466.858887,332.420227 464.612396,328.819214 
	C462.596252,325.587463 461.255280,322.088654 465.109955,319.037201 
	C468.506042,316.348785 471.862701,313.603790 475.354370,311.044189 
	C488.601318,301.333405 499.032471,288.601227 511.225189,277.748840 
	C542.088928,250.278015 570.702515,220.365692 602.117249,193.493607 
	C633.405579,166.729660 665.827515,141.401154 699.564697,117.775848 
	C715.284302,106.767822 729.617615,94.023148 744.367432,81.805542 
	C747.396179,79.296745 751.709778,76.037987 750.086853,72.139748 
	C748.454041,68.217751 743.132324,70.068733 739.636963,70.490166 
	C722.840027,72.515404 706.964661,78.145912 691.099121,83.723915 
	C656.925476,95.738686 625.849731,113.903175 595.025146,132.476593 
	C557.675049,154.981934 523.790527,182.007919 491.244690,211.024323 
	C461.508362,237.535858 437.029907,268.256256 413.851593,300.269958 
	C412.401733,302.272461 410.491486,304.184265 410.433838,306.815186 
	C410.349976,310.643188 408.354919,311.841705 404.935883,311.295685 
	C401.258057,310.708313 399.994934,308.088867 400.249847,304.775238 
	C400.429016,302.446167 401.809235,300.439423 402.878510,298.354095 
	C413.390656,277.852661 428.305176,260.482910 442.767059,242.862488 
	C466.445831,214.012085 494.345001,189.657104 523.632629,166.576263 
	C562.195374,136.185913 603.839600,110.945213 647.674072,89.267876 
	C674.433838,76.034477 702.438477,65.755165 731.982727,60.317390 
	C737.902344,59.227863 743.890808,59.000885 749.876709,59.733265 
	C758.701416,60.812962 762.872864,67.255692 760.428894,75.789719 
	C757.631409,85.558548 749.804138,91.213432 742.822021,97.601852 
	C722.358398,116.325470 698.724060,130.954483 677.275208,148.373734 
	C646.377869,173.466354 615.869202,199.024796 586.564392,226.016006 
	C572.366089,239.093384 557.389771,251.338989 543.414001,264.688568 
	C541.654602,266.369232 539.891052,268.045715 538.625183,270.423126 
	C547.247314,266.234772 555.794189,261.882141 564.507874,257.893829 
	C580.401550,250.619186 595.837158,242.310516 612.389282,236.511459 
	C614.431946,235.795792 616.484680,235.102692 618.556030,234.475937 
	C631.027649,230.702286 636.206482,235.374222 633.431458,248.145447 
	C649.828613,240.488586 666.032715,232.743439 682.393250,225.344147 
	C693.503967,220.319183 704.236328,214.676163 714.379883,207.916519 
	C716.503540,206.501297 718.830383,205.615021 721.327881,205.269089 
	C726.121338,204.605148 729.980713,206.866364 731.595825,211.342575 
	C733.170105,215.705551 731.793945,219.508820 728.057068,221.780289 
	C720.522400,226.360397 712.691406,230.452072 704.997192,234.771317 
	C702.439453,236.207153 699.561401,237.212173 697.665222,239.773743 
	C699.506409,242.624603 701.277771,244.692764 705.084045,244.886185 
	C709.988037,245.135422 712.003052,248.438721 712.006104,254.531570 
	C725.872253,252.973785 725.712585,252.792191 735.873230,243.858337 
	C749.883362,231.539780 764.166382,219.531754 778.323792,207.380569 
	C779.563965,206.316177 781.094421,205.512283 781.731750,203.819397 
	C781.157166,202.092636 779.637512,202.265503 778.421021,202.409622 
	C771.482239,203.231644 764.445007,203.051880 757.570496,204.549088 
	C753.919617,205.344208 750.567261,206.493423 748.023438,209.485489 
	C746.481689,211.298843 744.295288,212.334702 741.968323,212.781769 
	C739.107117,213.331482 736.514893,212.716248 735.389099,209.699661 
	C734.277832,206.721985 736.431213,205.512329 738.506653,203.798859 
	C754.038513,190.975632 773.192200,193.193680 791.223267,191.028763 
	C795.733459,190.487244 799.328430,189.359894 802.938904,186.564255 
	C831.624817,164.352615 861.545288,144.149353 896.245300,132.323578 
	C908.362183,128.194183 920.575867,124.205521 933.302368,122.244156 
	C935.588562,121.891808 937.970581,121.607040 940.247803,121.852600 
	C947.981934,122.686592 951.435791,130.044617 947.189697,136.541855 
	C943.900879,141.574188 938.776123,144.573456 933.902039,147.720886 
	C905.630920,165.976883 877.381836,184.273956 850.256165,204.209763 
	C822.333130,224.731567 795.413818,246.551086 768.526123,268.401337 
	C768.038635,268.797424 767.682251,269.354889 767.637329,270.610229 
	C777.756042,267.025269 787.914490,263.548096 797.984741,259.831879 
	C816.412842,253.031372 834.775513,246.053589 853.195068,239.229599 
	C858.457825,237.279861 863.250366,238.850845 865.815674,243.051590 
	C868.439270,247.347900 867.598450,251.922302 862.886536,255.860321 
	C854.428040,262.929718 845.018738,268.648834 835.617004,274.355927 
	C832.213318,276.422058 828.815857,278.498596 825.590149,281.217194 
	C835.141479,279.917084 844.679382,278.506805 854.247620,277.346039 
	C865.147461,276.023651 876.051514,274.597473 886.996765,273.832397 
	C895.500427,273.237976 903.846741,275.480316 912.203186,276.854797 
	C915.336060,277.370117 917.090515,279.822998 916.989746,283.007782 
	C916.891602,286.110168 915.244690,288.584045 912.057556,289.124207 
	C899.959595,291.174438 888.226013,295.125488 875.770630,295.403900 
	C866.801575,295.604340 857.852600,296.720490 848.896179,297.447083 
	C847.566711,297.554901 846.259399,297.803772 844.993652,298.994141 
	C846.650757,307.817993 841.222046,312.720947 834.326477,316.572632 
	C803.765503,333.643158 772.397888,349.090820 740.262390,362.968567 
	C717.720642,372.703217 694.437866,380.132751 670.308411,384.753052 
	C659.989502,386.728912 649.552856,387.869263 639.013062,387.229767 
	C636.196411,387.058838 633.357117,386.727722 630.606018,386.118805 
	C624.659485,384.802582 619.204651,382.434021 617.981323,375.668884 
	C616.812927,369.207489 620.292236,364.356079 625.066101,360.631104 
	C633.097046,354.364655 642.036621,349.487976 650.876282,344.458801 
	C688.148560,323.253601 727.802795,307.825470 768.848877,295.816772 
	C775.044495,294.004181 780.543701,291.365112 785.649170,287.426544 
	C792.085754,282.461029 798.883545,277.963715 805.040100,272.213684 
	C793.713013,276.136658 782.366577,280.004730 771.065430,284.001038 
	C762.902283,286.887695 754.827148,290.024017 746.654419,292.882324 
	C743.842468,293.865814 740.883179,294.518524 737.939331,295.013458 
	C733.740356,295.719391 730.244751,294.438873 728.506287,290.285309 
	C726.854431,286.338623 728.386353,282.999268 731.506592,280.572601 
	C740.843689,273.310791 750.532776,266.487457 759.682861,259.002045 
	C782.504333,240.332413 805.000122,221.264297 828.238220,203.105103 
	C829.022827,202.491989 829.803772,201.874069 831.461060,200.570587 
	C821.366089,199.615692 812.306824,199.932617 803.809814,201.964066 
	C798.071350,203.335999 794.264099,209.473206 789.519409,213.390442 
	C765.490906,233.228516 743.292480,255.135605 719.554932,275.301544 
	C716.771545,277.666138 713.775696,279.830383 710.675842,281.762756 
	C703.340759,286.335419 699.287170,284.967834 695.959778,277.057190 
	C688.818970,276.740326 688.818970,276.740326 684.757690,272.120911 
	C682.814453,272.123962 681.634033,273.786957 679.994690,274.495209 
	C675.755737,276.326599 671.540710,277.115479 668.090210,273.180359 
	C666.288635,271.125793 664.693970,271.650574 662.830933,272.660675 
	C659.146729,274.658142 655.345032,276.307678 651.114502,276.746277 
	C648.049194,277.064087 645.465271,276.228119 643.799927,273.512665 
	C642.210876,270.921570 642.680176,268.292603 644.400879,266.022522 
	C647.106445,262.453217 650.027222,259.047058 653.387268,254.920471 
	C639.099792,261.370758 625.752686,268.067657 611.902344,273.475525 
	C595.461365,279.894928 583.397339,292.335571 569.581482,302.354095 
	C555.559692,312.521973 541.868835,323.146118 527.743896,333.782471 
M741.145935,350.609406 
	C770.134888,337.595886 798.077332,322.519562 826.366516,308.011169 
	C813.836243,307.797913 802.004089,310.382111 790.365234,313.869995 
	C774.399841,318.654480 759.160461,325.422028 743.591553,331.291321 
	C737.991882,333.402283 735.347900,331.933136 733.568665,326.139618 
	C733.389160,325.555023 732.982971,325.040039 732.351624,323.892090 
	C698.318970,335.152679 666.389099,350.222382 636.585449,370.679565 
	C638.186096,372.314301 639.439270,372.574493 640.766968,372.644470 
	C647.926575,373.021912 655.100830,373.160889 662.227783,372.376587 
	C689.432373,369.382751 715.132141,360.852539 741.145935,350.609406 
M863.833191,162.407166 
	C848.141052,170.609802 832.369995,178.683838 817.212341,190.787399 
	C825.589600,190.787399 832.523743,190.652802 839.448853,190.845352 
	C842.808228,190.938751 845.461243,189.900558 848.177979,187.986450 
	C858.510132,180.706955 868.979553,173.621521 879.427734,166.507660 
	C890.021179,159.294846 900.650146,152.134186 912.118713,144.371887 
	C894.744934,148.396439 879.369568,154.565979 863.833191,162.407166 
z"/>
<path fill="#000000" opacity="1.000000" stroke="none" 
	d="
M361.423676,143.243866 
	C366.959686,141.749146 372.090057,140.311203 377.261139,139.038834 
	C380.585846,138.220749 383.877594,138.348892 384.952454,142.363007 
	C386.065002,146.517792 383.009094,148.042328 379.774811,148.876251 
	C363.324371,153.117752 347.174652,158.361618 330.924530,163.276932 
	C325.171112,165.017227 320.513275,167.892181 316.407562,172.353622 
	C290.910553,200.059723 266.341309,228.557678 242.600571,257.777802 
	C235.885162,266.043152 228.289917,273.594208 222.203751,283.295013 
	C230.161819,277.108704 237.381058,270.982330 245.107819,265.582092 
	C273.767242,245.551987 301.697205,224.356644 333.420746,209.111313 
	C334.021332,208.822693 334.613251,208.516083 335.209045,208.217514 
	C338.732330,206.452072 342.307312,205.603546 345.152405,209.187653 
	C348.087006,212.884506 346.694885,216.433090 343.950867,219.558014 
	C338.888031,225.323639 333.316315,230.583572 327.644470,235.747391 
	C322.364044,240.554855 317.216187,245.507965 312.609497,251.373520 
	C315.026093,249.984375 317.463348,248.629745 319.855988,247.200470 
	C335.442017,237.889816 350.933838,228.416992 366.977600,219.896637 
	C368.154449,219.271637 369.345886,218.670746 370.552979,218.106644 
	C373.966980,216.511185 377.159088,216.494690 379.187073,220.155731 
	C381.304016,223.977341 379.258240,226.519348 375.967438,228.284424 
	C358.818451,237.482544 344.266693,250.279800 329.004761,262.093048 
	C328.365967,262.587463 327.800598,263.176788 326.068176,264.751862 
	C331.814941,262.821320 335.941681,260.982147 339.913177,258.704132 
	C343.374023,256.719025 347.180206,255.098328 350.298950,258.909821 
	C353.135071,262.375885 351.775604,265.813354 348.804596,268.636047 
	C347.619598,269.761871 347.489349,270.836334 348.249695,272.167145 
	C349.506134,274.366302 349.318665,276.619171 348.196442,279.356079 
	C351.090668,278.809875 353.620361,278.183136 356.188110,277.888214 
	C358.980621,277.567413 361.869202,278.031891 362.718719,281.122314 
	C363.549744,284.145447 361.158936,285.395233 358.698700,286.481354 
	C348.951385,290.784241 339.270233,295.236786 329.536743,299.571442 
	C325.769562,301.249084 321.961334,302.277130 318.228180,299.335236 
	C316.547455,298.010773 315.085205,299.320068 313.607361,299.950409 
	C306.629974,302.926544 305.538452,302.683044 300.632080,296.742249 
	C297.004456,298.916046 293.347992,301.168396 289.631256,303.316467 
	C286.151703,305.327454 282.417908,306.743195 278.514404,307.706573 
	C272.345215,309.229065 269.535248,307.885742 264.853943,300.905975 
	C257.669556,307.118286 250.561829,313.343689 243.360886,319.459351 
	C239.427292,322.800049 235.405273,326.046234 231.297607,329.169922 
	C226.476440,332.836151 222.714188,332.778259 219.801758,329.255402 
	C217.185852,326.091156 217.853195,322.245300 222.171280,318.408691 
	C248.707733,294.831177 272.899261,268.802155 299.118622,244.895325 
	C299.320374,244.711380 299.388336,244.380676 299.938110,243.275330 
	C271.127563,263.831482 242.183105,282.698853 217.339066,307.149933 
	C203.121307,321.142822 187.412827,333.624756 172.311691,346.713348 
	C169.260147,349.358246 165.906815,350.400238 162.620956,346.864807 
	C159.850876,343.884338 159.896896,340.005402 162.944595,336.552673 
	C201.642136,292.712921 237.270416,246.301300 275.593445,202.149002 
	C282.361542,194.351425 289.269135,186.674942 296.109222,178.939819 
	C297.185150,177.723129 298.624268,176.729980 298.767426,174.132919 
	C289.948822,176.747360 281.417664,179.305832 272.869324,181.805557 
	C243.288879,190.455582 214.515625,201.482635 185.384796,211.456955 
	C182.749603,212.359238 180.846970,214.122726 178.903458,215.970276 
	C145.756287,247.480530 114.746880,280.888947 88.047226,318.131927 
	C84.800369,322.660919 80.463074,326.241974 78.453880,331.893158 
	C77.135490,335.601379 72.713501,334.621674 69.585785,333.535370 
	C66.521301,332.471069 65.340683,329.879425 66.400459,326.667236 
	C66.809364,325.427856 67.465569,324.205902 68.259171,323.167023 
	C88.275391,296.964539 107.086853,269.774719 130.127884,246.027069 
	C137.661438,238.262451 146.036865,231.314682 154.027298,223.993347 
	C153.546600,223.355042 153.065903,222.716751 152.585205,222.078461 
	C145.139114,223.635269 137.721481,225.349854 130.238083,226.700027 
	C124.018738,227.822128 117.729454,228.684113 111.368622,228.174622 
	C108.488373,227.943924 105.197487,227.608551 105.053696,223.913406 
	C104.904312,220.074677 108.176620,219.802597 111.085991,219.520309 
	C129.405228,217.742798 147.082825,213.120071 164.551498,207.530258 
	C168.121964,206.387741 171.149200,204.623444 173.859879,201.987595 
	C201.127029,175.473022 230.250351,151.060455 260.379761,127.943283 
	C301.438171,96.440651 345.269409,69.205994 391.716522,46.266293 
	C402.776611,40.803829 414.089050,35.925583 425.500244,31.262720 
	C429.434906,29.654917 433.510010,29.000351 437.731354,29.730562 
	C442.717194,30.593014 445.128876,34.305496 443.839600,39.241974 
	C442.350250,44.944420 438.533325,49.252106 434.600250,53.287090 
	C419.015778,69.275391 402.888336,84.712265 386.526978,99.904808 
	C370.768616,114.537384 356.671204,130.813019 341.240021,145.771042 
	C340.687164,146.306931 340.397766,147.114578 340.479797,149.132996 
	C347.331635,147.212265 354.183441,145.291534 361.423676,143.243866 
M226.518661,184.895065 
	C250.977356,176.123505 275.698212,168.115662 300.692902,161.067795 
	C310.943604,158.177368 319.198456,153.730194 326.508698,145.614258 
	C356.851440,111.927353 390.276703,81.248581 422.240692,49.137215 
	C423.810272,47.560390 425.269409,45.873638 426.779968,44.238068 
	C343.387268,79.288521 271.400146,131.089325 204.407074,192.921494 
	C212.401398,190.028458 219.096893,187.605438 226.518661,184.895065 
z"/>
<path fill="#000000" opacity="1.000000" stroke="none" 
	d="
M776.040833,161.829437 
	C776.685669,164.346069 777.431274,166.550385 777.984619,168.801941 
	C778.783508,172.052856 777.392212,174.330826 774.438721,175.616058 
	C771.406555,176.935532 769.181580,175.515564 767.795959,172.946350 
	C765.011963,167.784134 763.502930,162.171768 762.723450,156.380966 
	C762.574646,155.275223 762.753113,154.015152 763.148376,152.964676 
	C765.416382,146.937134 779.088928,144.764832 783.158875,149.736786 
	C786.218140,153.474075 784.765198,158.585037 780.228149,160.308136 
	C778.858337,160.828369 777.193665,160.292160 776.040833,161.829437 
z"/>
</svg>